<svg width="35" height="28" viewBox="0 0 35 28" fill="none" xmlns="http://www.w3.org/2000/svg">
<path d="M31.5117 0.5H3.48828C1.83722 0.5 0.5 2.01965 0.5 3.875V24.125C0.5 25.9914 1.84705 27.5 3.48828 27.5H31.5117C33.149 27.5 34.5 25.9978 34.5 24.125V3.875C34.5 2.02295 33.1681 0.5 31.5117 0.5ZM31.0932 2.75C30.4827 3.43588 19.9758 15.24 19.613 15.6475C19.0486 16.285 18.2982 16.636 17.5 16.636C16.7018 16.636 15.9514 16.285 15.3851 15.6454C15.1411 15.3713 4.7502 3.69755 3.90677 2.75H31.0932ZM2.49219 23.6671V4.33438L11.101 14.006L2.49219 23.6671ZM3.90804 25.25L12.5134 15.5928L13.9783 17.2385C14.919 18.301 16.1697 18.886 17.5 18.886C18.8303 18.886 20.081 18.301 21.0199 17.2406L22.4866 15.5928L31.092 25.25H3.90804ZM32.5078 23.6671L23.899 14.006L32.5078 4.33438V23.6671Z"/>
</svg>
