<svg width="14" height="9" viewBox="0 0 14 9" fill="none" xmlns="http://www.w3.org/2000/svg">
<path fill-rule="evenodd" clip-rule="evenodd" d="M13.6789 0.552988C13.7757 0.234495 13.6789 0 13.2151 0H11.6839C11.2943 0 11.1146 0.202412 11.0172 0.425824C11.0172 0.425824 10.2385 2.29012 9.13539 3.50109C8.7784 3.85225 8.61624 3.96367 8.42141 3.96367C8.32399 3.96367 8.17758 3.85225 8.17758 3.53318V0.552988C8.17758 0.17033 8.07025 0 7.74592 0H5.33797C5.09473 0 4.94831 0.17733 4.94831 0.345909C4.94831 0.708152 5.50013 0.79215 5.55672 1.8118V4.02725C5.55672 4.51316 5.46747 4.60124 5.27264 4.60124C4.75348 4.60124 3.49059 2.72819 2.74103 0.585071C2.59578 0.167996 2.44878 0 2.05737 0H0.524989C0.0874982 0 0 0.202412 0 0.425824C0 0.823649 0.519156 2.79994 2.41787 5.4138C3.68367 7.19877 5.46572 8.1665 7.0891 8.1665C8.06266 8.1665 8.18283 7.95183 8.18283 7.58142V6.2322C8.18283 5.80229 8.27499 5.71655 8.58357 5.71655C8.81107 5.71655 9.20014 5.82854 10.109 6.68894C11.1473 7.70917 11.3182 8.1665 11.9027 8.1665H13.4339C13.8714 8.1665 14.0907 7.95183 13.9647 7.52717C13.8259 7.10485 13.3301 6.49178 12.6727 5.76438C12.3157 5.35022 11.7802 4.90398 11.6174 4.68057C11.3905 4.39416 11.4553 4.26641 11.6174 4.0115C11.6174 4.0115 13.484 1.42972 13.6783 0.552988" fill="white"/>
</svg>
