<svg width="30" height="22" viewBox="0 0 30 22" fill="none" xmlns="http://www.w3.org/2000/svg">
<path d="M2.14286 0.25H12.8571C13.3592 0.25 13.8406 0.449425 14.1956 0.804405C14.5506 1.15938 14.75 1.64084 14.75 2.14286C14.75 2.64487 14.5506 3.12633 14.1956 3.48131C13.8406 3.83629 13.3592 4.03571 12.8571 4.03571H2.14286C1.64084 4.03571 1.15938 3.83629 0.804405 3.48131C0.449425 3.12633 0.25 2.64487 0.25 2.14286C0.25 1.64084 0.449425 1.15938 0.804405 0.804405C1.15938 0.449425 1.64084 0.25 2.14286 0.25ZM17.1429 17.3929H27.8571C28.3592 17.3929 28.8406 17.5923 29.1956 17.9473C29.5506 18.3022 29.75 18.7837 29.75 19.2857C29.75 19.7877 29.5506 20.2692 29.1956 20.6242C28.8406 20.9791 28.3592 21.1786 27.8571 21.1786H17.1429C16.6408 21.1786 16.1594 20.9791 15.8044 20.6242C15.4494 20.2692 15.25 19.7877 15.25 19.2857C15.25 18.7837 15.4494 18.3022 15.8044 17.9473C16.1594 17.5923 16.6408 17.3929 17.1429 17.3929ZM2.14286 8.82143H27.8571C28.3592 8.82143 28.8406 9.02085 29.1956 9.37583C29.5506 9.73081 29.75 10.2123 29.75 10.7143C29.75 11.2163 29.5506 11.6978 29.1956 12.0527C28.8406 12.4077 28.3592 12.6071 27.8571 12.6071H2.14286C1.64084 12.6071 1.15938 12.4077 0.804405 12.0527C0.449425 11.6978 0.25 11.2163 0.25 10.7143C0.25 10.2123 0.449425 9.73081 0.804405 9.37583C1.15938 9.02085 1.64084 8.82143 2.14286 8.82143Z" fill="#212526" stroke="#E7E7EE" stroke-width="0.5"/>
</svg>
