<svg width="16" height="16" viewBox="0 0 16 16" xmlns="http://www.w3.org/2000/svg">
<path d="M14.8782 11.4976C12.5907 9.65922 11.951 10.5629 10.9131 11.6007C10.1886 12.3255 8.35481 10.8118 6.77151 9.22843C5.1881 7.64487 3.67474 5.81147 4.39927 5.08675C5.43723 4.04894 6.34065 3.4089 4.50177 1.12211C2.6635 -1.1656 1.43809 0.59075 0.432674 1.59624C-0.728054 2.75658 0.371522 7.08068 4.64514 11.3551C8.91938 15.6288 13.2435 16.7276 14.4036 15.5677C15.4088 14.5621 17.1657 13.3369 14.8782 11.4976ZM2.85528 2.36238C2.82442 2.37501 2.77912 2.39355 2.7215 2.41712C2.61244 2.45889 2.48204 2.50618 2.33689 2.56933C2.26918 2.60196 2.19325 2.63727 2.124 2.6808C2.05217 2.72368 1.98081 2.77232 1.91647 2.83247C1.84618 2.88936 1.79156 2.96207 1.72833 3.03827C1.68135 3.1223 1.6207 3.20817 1.58795 3.31136C1.54039 3.40902 1.52334 3.52153 1.49494 3.6322C1.47306 3.74449 1.46926 3.86119 1.45532 3.9752C1.4539 4.20556 1.46285 4.42683 1.49252 4.61539C1.50803 4.8071 1.5567 4.96905 1.5759 5.0813C1.59943 5.19393 1.61283 5.25823 1.61283 5.25823C1.61283 5.25823 1.57824 5.2023 1.5177 5.10437C1.46031 5.00345 1.36288 4.87381 1.27736 4.68951C1.17878 4.51032 1.08684 4.28982 0.999353 4.04176C0.96822 3.91378 0.925994 3.78103 0.902616 3.63873C0.886147 3.49493 0.85893 3.3466 0.869871 3.1904C0.865149 3.03447 0.897049 2.87689 0.926032 2.71766C0.972136 2.56338 1.02123 2.40702 1.09647 2.26791C1.16519 2.12572 1.25171 1.997 1.33816 1.8848C1.42515 1.76914 1.5149 1.67447 1.59951 1.58641C1.7683 1.42035 1.91486 1.299 2.00023 1.22453C2.0491 1.18361 2.0691 1.16146 2.09091 1.14204C2.11018 1.12399 2.12046 1.11436 2.12046 1.11436L2.90492 2.34127C2.90503 2.34127 2.88772 2.3486 2.85528 2.36238ZM14.6283 14.0177C14.5513 14.1135 14.4306 14.2617 14.2669 14.4297C14.1797 14.5124 14.0897 14.602 13.9777 14.6866C13.8728 14.7743 13.7453 14.8545 13.6154 14.9298C13.4815 15.0034 13.3391 15.0665 13.1886 15.1135C13.0397 15.1588 12.8852 15.1954 12.7334 15.2078L12.5077 15.2239L12.2887 15.2121C12.1447 15.2102 12.0105 15.1718 11.8812 15.1503C11.7523 15.1264 11.6354 15.0785 11.5235 15.0464C11.4115 15.0162 11.3112 14.961 11.2183 14.9243C11.0302 14.8496 10.8955 14.7633 10.7938 14.7099C10.694 14.6549 10.6371 14.6235 10.6371 14.6235C10.6371 14.6235 10.7014 14.6334 10.8139 14.6506C10.9257 14.6656 11.089 14.7009 11.2781 14.7047C11.3733 14.7067 11.4709 14.7233 11.5791 14.7133C11.6859 14.705 11.7973 14.7104 11.9088 14.6904C12.0195 14.6682 12.1344 14.6619 12.241 14.6217L12.4012 14.5726L12.5497 14.5031C12.942 14.3131 13.1554 13.9784 13.2791 13.699C13.3403 13.5549 13.3841 13.4277 13.4171 13.3281C13.4532 13.2233 13.4737 13.1635 13.4737 13.1635L14.7443 13.875C14.7442 13.875 14.7021 13.927 14.6283 14.0177Z"/>
</svg>
