<svg xmlns="http://www.w3.org/2000/svg" xmlns:xlink="http://www.w3.org/1999/xlink"><defs>

</defs><symbol id="icon-arrow" viewBox="0 0 15 8">
<path d="M14.3536 4.35355C14.5488 4.15829 14.5488 3.84171 14.3536 3.64645L11.1716 0.464466C10.9763 0.269204 10.6597 0.269204 10.4645 0.464466C10.2692 0.659728 10.2692 0.976311 10.4645 1.17157L13.2929 4L10.4645 6.82843C10.2692 7.02369 10.2692 7.34027 10.4645 7.53553C10.6597 7.7308 10.9763 7.7308 11.1716 7.53553L14.3536 4.35355ZM0 4.5H14V3.5H0V4.5Z"/>
</symbol><symbol id="icon-burger" viewBox="0 0 30 22"><g fill="none">
<path d="M2.14286 0.25H12.8571C13.3592 0.25 13.8406 0.449425 14.1956 0.804405C14.5506 1.15938 14.75 1.64084 14.75 2.14286C14.75 2.64487 14.5506 3.12633 14.1956 3.48131C13.8406 3.83629 13.3592 4.03571 12.8571 4.03571H2.14286C1.64084 4.03571 1.15938 3.83629 0.804405 3.48131C0.449425 3.12633 0.25 2.64487 0.25 2.14286C0.25 1.64084 0.449425 1.15938 0.804405 0.804405C1.15938 0.449425 1.64084 0.25 2.14286 0.25ZM17.1429 17.3929H27.8571C28.3592 17.3929 28.8406 17.5923 29.1956 17.9473C29.5506 18.3022 29.75 18.7837 29.75 19.2857C29.75 19.7877 29.5506 20.2692 29.1956 20.6242C28.8406 20.9791 28.3592 21.1786 27.8571 21.1786H17.1429C16.6408 21.1786 16.1594 20.9791 15.8044 20.6242C15.4494 20.2692 15.25 19.7877 15.25 19.2857C15.25 18.7837 15.4494 18.3022 15.8044 17.9473C16.1594 17.5923 16.6408 17.3929 17.1429 17.3929ZM2.14286 8.82143H27.8571C28.3592 8.82143 28.8406 9.02085 29.1956 9.37583C29.5506 9.73081 29.75 10.2123 29.75 10.7143C29.75 11.2163 29.5506 11.6978 29.1956 12.0527C28.8406 12.4077 28.3592 12.6071 27.8571 12.6071H2.14286C1.64084 12.6071 1.15938 12.4077 0.804405 12.0527C0.449425 11.6978 0.25 11.2163 0.25 10.7143C0.25 10.2123 0.449425 9.73081 0.804405 9.37583C1.15938 9.02085 1.64084 8.82143 2.14286 8.82143Z" fill="#212526" stroke="#E7E7EE" stroke-width="0.5"/>
</g></symbol><symbol id="icon-close" viewBox="0 0 24 24"><g fill="none">
<path d="M2 2L22 22" stroke="black" stroke-width="3" stroke-linecap="round"/>
<path d="M22 2.41592L2 22.4159" stroke="black" stroke-width="3" stroke-linecap="round"/>
</g></symbol><symbol id="icon-email" viewBox="0 0 35 28"><g fill="none">
<path d="M31.5117 0.5H3.48828C1.83722 0.5 0.5 2.01965 0.5 3.875V24.125C0.5 25.9914 1.84705 27.5 3.48828 27.5H31.5117C33.149 27.5 34.5 25.9978 34.5 24.125V3.875C34.5 2.02295 33.1681 0.5 31.5117 0.5ZM31.0932 2.75C30.4827 3.43588 19.9758 15.24 19.613 15.6475C19.0486 16.285 18.2982 16.636 17.5 16.636C16.7018 16.636 15.9514 16.285 15.3851 15.6454C15.1411 15.3713 4.7502 3.69755 3.90677 2.75H31.0932ZM2.49219 23.6671V4.33438L11.101 14.006L2.49219 23.6671ZM3.90804 25.25L12.5134 15.5928L13.9783 17.2385C14.919 18.301 16.1697 18.886 17.5 18.886C18.8303 18.886 20.081 18.301 21.0199 17.2406L22.4866 15.5928L31.092 25.25H3.90804ZM32.5078 23.6671L23.899 14.006L32.5078 4.33438V23.6671Z"/>
</g></symbol><symbol id="icon-github" viewBox="0 0 20 20">
    
    <title>github [#142]</title>
    <desc>Created with Sketch.</desc>
    
    <g id="Page-1" stroke="none" stroke-width="1" fill="none" fill-rule="evenodd">
        <g id="Dribbble-Light-Preview" transform="translate(-140.000000, -7559.000000)" fill="#000000">
            <g id="icons" transform="translate(56.000000, 160.000000)">
                <path d="M94,7399 C99.523,7399 104,7403.59 104,7409.253 C104,7413.782 101.138,7417.624 97.167,7418.981 C96.66,7419.082 96.48,7418.762 96.48,7418.489 C96.48,7418.151 96.492,7417.047 96.492,7415.675 C96.492,7414.719 96.172,7414.095 95.813,7413.777 C98.04,7413.523 100.38,7412.656 100.38,7408.718 C100.38,7407.598 99.992,7406.684 99.35,7405.966 C99.454,7405.707 99.797,7404.664 99.252,7403.252 C99.252,7403.252 98.414,7402.977 96.505,7404.303 C95.706,7404.076 94.85,7403.962 94,7403.958 C93.15,7403.962 92.295,7404.076 91.497,7404.303 C89.586,7402.977 88.746,7403.252 88.746,7403.252 C88.203,7404.664 88.546,7405.707 88.649,7405.966 C88.01,7406.684 87.619,7407.598 87.619,7408.718 C87.619,7412.646 89.954,7413.526 92.175,7413.785 C91.889,7414.041 91.63,7414.493 91.54,7415.156 C90.97,7415.418 89.522,7415.871 88.63,7414.304 C88.63,7414.304 88.101,7413.319 87.097,7413.247 C87.097,7413.247 86.122,7413.234 87.029,7413.87 C87.029,7413.87 87.684,7414.185 88.139,7415.37 C88.139,7415.37 88.726,7417.2 91.508,7416.58 C91.513,7417.437 91.522,7418.245 91.522,7418.489 C91.522,7418.76 91.338,7419.077 90.839,7418.982 C86.865,7417.627 84,7413.783 84,7409.253 C84,7403.59 88.478,7399 94,7399" id="github-[#142]">

</path>
            </g>
        </g>
    </g>
</symbol><symbol id="icon-phone" viewBox="0 0 16 16">
<path d="M14.8782 11.4976C12.5907 9.65922 11.951 10.5629 10.9131 11.6007C10.1886 12.3255 8.35481 10.8118 6.77151 9.22843C5.1881 7.64487 3.67474 5.81147 4.39927 5.08675C5.43723 4.04894 6.34065 3.4089 4.50177 1.12211C2.6635 -1.1656 1.43809 0.59075 0.432674 1.59624C-0.728054 2.75658 0.371522 7.08068 4.64514 11.3551C8.91938 15.6288 13.2435 16.7276 14.4036 15.5677C15.4088 14.5621 17.1657 13.3369 14.8782 11.4976ZM2.85528 2.36238C2.82442 2.37501 2.77912 2.39355 2.7215 2.41712C2.61244 2.45889 2.48204 2.50618 2.33689 2.56933C2.26918 2.60196 2.19325 2.63727 2.124 2.6808C2.05217 2.72368 1.98081 2.77232 1.91647 2.83247C1.84618 2.88936 1.79156 2.96207 1.72833 3.03827C1.68135 3.1223 1.6207 3.20817 1.58795 3.31136C1.54039 3.40902 1.52334 3.52153 1.49494 3.6322C1.47306 3.74449 1.46926 3.86119 1.45532 3.9752C1.4539 4.20556 1.46285 4.42683 1.49252 4.61539C1.50803 4.8071 1.5567 4.96905 1.5759 5.0813C1.59943 5.19393 1.61283 5.25823 1.61283 5.25823C1.61283 5.25823 1.57824 5.2023 1.5177 5.10437C1.46031 5.00345 1.36288 4.87381 1.27736 4.68951C1.17878 4.51032 1.08684 4.28982 0.999353 4.04176C0.96822 3.91378 0.925994 3.78103 0.902616 3.63873C0.886147 3.49493 0.85893 3.3466 0.869871 3.1904C0.865149 3.03447 0.897049 2.87689 0.926032 2.71766C0.972136 2.56338 1.02123 2.40702 1.09647 2.26791C1.16519 2.12572 1.25171 1.997 1.33816 1.8848C1.42515 1.76914 1.5149 1.67447 1.59951 1.58641C1.7683 1.42035 1.91486 1.299 2.00023 1.22453C2.0491 1.18361 2.0691 1.16146 2.09091 1.14204C2.11018 1.12399 2.12046 1.11436 2.12046 1.11436L2.90492 2.34127C2.90503 2.34127 2.88772 2.3486 2.85528 2.36238ZM14.6283 14.0177C14.5513 14.1135 14.4306 14.2617 14.2669 14.4297C14.1797 14.5124 14.0897 14.602 13.9777 14.6866C13.8728 14.7743 13.7453 14.8545 13.6154 14.9298C13.4815 15.0034 13.3391 15.0665 13.1886 15.1135C13.0397 15.1588 12.8852 15.1954 12.7334 15.2078L12.5077 15.2239L12.2887 15.2121C12.1447 15.2102 12.0105 15.1718 11.8812 15.1503C11.7523 15.1264 11.6354 15.0785 11.5235 15.0464C11.4115 15.0162 11.3112 14.961 11.2183 14.9243C11.0302 14.8496 10.8955 14.7633 10.7938 14.7099C10.694 14.6549 10.6371 14.6235 10.6371 14.6235C10.6371 14.6235 10.7014 14.6334 10.8139 14.6506C10.9257 14.6656 11.089 14.7009 11.2781 14.7047C11.3733 14.7067 11.4709 14.7233 11.5791 14.7133C11.6859 14.705 11.7973 14.7104 11.9088 14.6904C12.0195 14.6682 12.1344 14.6619 12.241 14.6217L12.4012 14.5726L12.5497 14.5031C12.942 14.3131 13.1554 13.9784 13.2791 13.699C13.3403 13.5549 13.3841 13.4277 13.4171 13.3281C13.4532 13.2233 13.4737 13.1635 13.4737 13.1635L14.7443 13.875C14.7442 13.875 14.7021 13.927 14.6283 14.0177Z"/>
</symbol><symbol id="icon-telegram" viewBox="0 0 14 12"><g fill="none">
<path d="M5.49349 7.68934L5.2619 10.9467C5.59324 10.9467 5.73674 10.8044 5.90883 10.6335L7.46228 9.14887L10.6812 11.5062C11.2715 11.8352 11.6875 11.6619 11.8467 10.9631L13.9596 1.06251L13.9602 1.06193C14.1474 0.189241 13.6446 -0.152017 13.0694 0.0620714L0.649953 4.81694C-0.197651 5.14594 -0.184817 5.61845 0.505866 5.83254L3.68103 6.82015L11.0563 2.20529C11.4034 1.97545 11.719 2.10262 11.4594 2.33246L5.49349 7.68934Z" fill="white"/>
</g></symbol><symbol id="icon-vk" viewBox="0 0 14 9"><g fill="none">
<path fill-rule="evenodd" clip-rule="evenodd" d="M13.6789 0.552988C13.7757 0.234495 13.6789 0 13.2151 0H11.6839C11.2943 0 11.1146 0.202412 11.0172 0.425824C11.0172 0.425824 10.2385 2.29012 9.13539 3.50109C8.7784 3.85225 8.61624 3.96367 8.42141 3.96367C8.32399 3.96367 8.17758 3.85225 8.17758 3.53318V0.552988C8.17758 0.17033 8.07025 0 7.74592 0H5.33797C5.09473 0 4.94831 0.17733 4.94831 0.345909C4.94831 0.708152 5.50013 0.79215 5.55672 1.8118V4.02725C5.55672 4.51316 5.46747 4.60124 5.27264 4.60124C4.75348 4.60124 3.49059 2.72819 2.74103 0.585071C2.59578 0.167996 2.44878 0 2.05737 0H0.524989C0.0874982 0 0 0.202412 0 0.425824C0 0.823649 0.519156 2.79994 2.41787 5.4138C3.68367 7.19877 5.46572 8.1665 7.0891 8.1665C8.06266 8.1665 8.18283 7.95183 8.18283 7.58142V6.2322C8.18283 5.80229 8.27499 5.71655 8.58357 5.71655C8.81107 5.71655 9.20014 5.82854 10.109 6.68894C11.1473 7.70917 11.3182 8.1665 11.9027 8.1665H13.4339C13.8714 8.1665 14.0907 7.95183 13.9647 7.52717C13.8259 7.10485 13.3301 6.49178 12.6727 5.76438C12.3157 5.35022 11.7802 4.90398 11.6174 4.68057C11.3905 4.39416 11.4553 4.26641 11.6174 4.0115C11.6174 4.0115 13.484 1.42972 13.6783 0.552988" fill="white"/>
</g></symbol></svg>